<?xml version="1.0" encoding="UTF-8"?>
<svg width="14px" height="14px" viewBox="0 0 14 14" version="1.1" xmlns="http://www.w3.org/2000/svg" xmlns:xlink="http://www.w3.org/1999/xlink">
    <!-- Generator: Sketch 63.1 (92452) - https://sketch.com -->
    <title>API</title>
    <desc>Created with Sketch.</desc>
    <g id="页面-1" stroke="none" stroke-width="1" fill="none" fill-rule="evenodd">
        <g id="API" transform="translate(-1.000000, -1.000000)">
            <g id="页面-1" opacity="0.45" transform="translate(1.488372, 1.488372)" fill="#FFFFFF" fill-rule="nonzero">
                <path d="M11.0697674,0 C11.943148,0 12.6511628,0.708014814 12.6511628,1.58139535 L12.6511628,11.0697674 C12.6511628,11.943148 11.943148,12.6511628 11.0697674,12.6511628 L1.58139535,12.6511628 C0.708014814,12.6511628 0,11.943148 0,11.0697674 L0,1.58139535 C0,0.708014814 0.708014814,0 1.58139535,0 L11.0697674,0 Z M7.0895775,3.51225944 L5.67899426,3.51225944 L5.67899426,9.511628 L6.6213341,9.511628 L6.6213341,7.16455796 L7.10128358,7.16455796 C7.39393571,7.17626405 7.69244087,7.11773362 7.94997474,6.99481973 C8.16068427,6.88361192 8.34212859,6.72557977 8.46504248,6.53242937 C8.5703972,6.37439722 8.6464868,6.19880595 8.6816051,6.01150859 C8.7225764,5.78909297 8.7342824,5.55497127 8.7342824,5.33255566 C8.7459885,5.04575658 8.7050172,4.7589575 8.6406338,4.47801146 C8.5821033,4.27315497 8.46504248,4.08585761 8.30701033,3.9336785 C8.16068427,3.78735244 7.97923996,3.67029159 7.77438347,3.60590812 C7.55196785,3.54152466 7.31784615,3.5064064 7.0895775,3.51225944 L7.0895775,3.51225944 Z M3.75334327,3.51225944 L2.97488862,3.51225944 L1.511628,9.505775 L2.4481148,9.505775 L2.72906084,8.21810561 L4.01087714,8.21810561 L4.29182318,9.505775 L5.2166039,9.505775 L3.75334327,3.51225944 Z M10.3965465,3.51225944 L9.4600597,3.51225944 L9.4600597,9.505775 L10.3965465,9.505775 L10.3965465,3.51225944 Z M3.36704247,5.23890698 L3.82943283,7.41038574 L2.88123994,7.41038574 L3.35533639,5.23890698 L3.36704247,5.23890698 Z M7.12469575,4.32583235 C7.26516877,4.31997931 7.41149483,4.34924452 7.54611481,4.4019219 C7.63976349,4.44874624 7.72170609,4.5248358 7.76267738,4.61848448 C7.81535477,4.72969228 7.84461998,4.84090009 7.84461998,4.95796094 L7.84461998,4.95796094 L7.84418642,5.50251067 C7.8433193,5.59659291 7.84071795,5.68373821 7.83291389,5.7656808 C7.82120781,5.87103557 7.7919426,5.97639033 7.73926521,6.07589206 C7.69244087,6.16368769 7.61049828,6.23977725 7.51099656,6.28660159 C7.37052354,6.33927897 7.21834443,6.36269114 7.06616533,6.3568381 L7.06616533,6.3568381 L6.6213341,6.3568381 L6.6213341,4.32583235 Z" id="形状结合"></path>
            </g>
            <rect id="矩形" x="0" y="0" width="16" height="16"></rect>
        </g>
    </g>
</svg>