<?xml version="1.0" encoding="UTF-8"?>
<svg width="12px" height="12px" viewBox="0 0 12 12" version="1.1" xmlns="http://www.w3.org/2000/svg" xmlns:xlink="http://www.w3.org/1999/xlink">
    <!-- Generator: Sketch 63.1 (92452) - https://sketch.com -->
    <title>1.通用/2.Icon图标/Fill/数据地图/API</title>
    <desc>Created with Sketch.</desc>
    <defs>
        <linearGradient x1="50%" y1="0%" x2="50%" y2="82.0854638%" id="linearGradient-1">
            <stop stop-color="#B1E997" offset="0%"></stop>
            <stop stop-color="#61BA46" offset="100%"></stop>
        </linearGradient>
    </defs>
    <g id="页面-1" stroke="none" stroke-width="1" fill="none" fill-rule="evenodd">
        <g id="交互细节" transform="translate(-160.000000, -708.000000)">
            <g id="编组-25备份-5" transform="translate(151.000000, 698.000000)">
                <g id="编组-2备份-4">
                    <g id="1.通用/2.Icon图标/Fill/数据地图/API" transform="translate(8.000000, 9.000000)">
                        <g id="API">
                            <path d="M11.2,1.4 C11.9731987,1.4 12.6,2.02680135 12.6,2.8 L12.6,11.2 C12.6,11.9731987 11.9731987,12.6 11.2,12.6 L2.8,12.6 C2.02680135,12.6 1.4,11.9731987 1.4,11.2 L1.4,2.8 C1.4,2.02680135 2.02680135,1.4 2.8,1.4 L11.2,1.4 Z M7.67636125,4.50938262 L6.42758021,4.50938262 L6.42758021,9.82058831 L7.26182813,9.82058831 L7.26182813,7.74274101 L7.68672458,7.74274101 C7.94580779,7.75310435 8.21007265,7.7012877 8.43806587,7.59247276 C8.62460577,7.49402114 8.78523736,7.3541162 8.89405231,7.18312129 C8.98732222,7.04321636 9.0546839,6.88776644 9.08577392,6.72195319 C9.12204557,6.52504995 9.13240882,6.31778339 9.13240882,6.12088015 C9.14277217,5.86697862 9.10650052,5.61307708 9.04950227,5.3643572 C8.99768556,5.18299896 8.89405231,5.01718571 8.75414737,4.88246243 C8.62460577,4.75292083 8.46397419,4.64928755 8.28261595,4.59228925 C8.08571271,4.53529095 7.87844615,4.50420096 7.67636125,4.50938262 L7.67636125,4.50938262 Z M4.72281272,4.50938262 L4.03365139,4.50938262 L2.73823538,9.81540668 L3.56730163,9.81540668 L3.81602151,8.67544055 L4.95080594,8.67544055 L5.19952581,9.81540668 L6.01822874,9.81540668 L4.72281272,4.50938262 Z M10.6040015,4.50938262 L9.7749352,4.50938262 L9.7749352,9.81540668 L10.6040015,9.81540668 L10.6040015,4.50938262 Z M4.38082289,6.03797353 L4.79017436,7.9603709 L3.95074477,7.9603709 L4.37045957,6.03797353 L4.38082289,6.03797353 Z M7.70745123,5.22963393 C7.83181117,5.22445227 7.96135277,5.25036059 8.08053105,5.29699556 C8.16343767,5.33844887 8.23598097,5.40581051 8.27225262,5.48871714 C8.3188876,5.58716875 8.34479592,5.68562037 8.34479592,5.78925365 L8.34479592,5.78925365 L8.34441209,6.27134032 C8.34364444,6.35463078 8.34134147,6.43178 8.33443259,6.50432329 C8.32406926,6.59759325 8.29816094,6.6908632 8.25152596,6.7789515 C8.21007265,6.85667645 8.13752935,6.92403809 8.04944107,6.9654914 C7.92508113,7.01212638 7.79035786,7.03285303 7.6556346,7.02767137 L7.6556346,7.02767137 L7.26182813,7.02767137 L7.26182813,5.22963393 Z" id="形状结合" fill="url(#linearGradient-1)" fill-rule="nonzero"></path>
                            <rect id="矩形" x="0" y="0" width="14" height="14"></rect>
                        </g>
                    </g>
                </g>
            </g>
        </g>
    </g>
</svg>