<?xml version="1.0" encoding="UTF-8"?>
<svg width="8px" height="8px" viewBox="0 0 8 8" version="1.1" xmlns="http://www.w3.org/2000/svg" xmlns:xlink="http://www.w3.org/1999/xlink">
    <!-- Generator: Sketch 63.1 (92452) - https://sketch.com -->
    <title>Icon/Close</title>
    <desc>Created with Sketch.</desc>
    <g id="页面-1" stroke="none" stroke-width="1" fill="none" fill-rule="evenodd" opacity="0.45">
        <g id="8-点击字段-展示字段信息-浮层" transform="translate(-1383.000000, -667.000000)">
            <g id="Group-7" transform="translate(1168.000000, 658.000000)">
                <g id="编组-5">
                    <g id="1.通用/2.Icon图标/Line/Close" transform="translate(214.000000, 8.000000)">
                        <rect id="矩形" fill="#000000" fill-rule="nonzero" opacity="0" x="0" y="0" width="10" height="10"></rect>
                        <path d="M5.50585937,5 L8.06933594,1.94433594 C8.11230469,1.89355469 8.07617187,1.81640625 8.00976562,1.81640625 L7.23046875,1.81640625 C7.18457031,1.81640625 7.140625,1.83691406 7.11035156,1.87207031 L4.99609375,4.39257812 L2.88183594,1.87207031 C2.85253906,1.83691406 2.80859375,1.81640625 2.76171875,1.81640625 L1.98242187,1.81640625 C1.91601562,1.81640625 1.87988281,1.89355469 1.92285156,1.94433594 L4.48632812,5 L1.92285156,8.05566406 C1.87988281,8.10644531 1.91601562,8.18359375 1.98242187,8.18359375 L2.76171875,8.18359375 C2.80761719,8.18359375 2.8515625,8.16308594 2.88183594,8.12792969 L4.99609375,5.60742187 L7.11035156,8.12792969 C7.13964844,8.16308594 7.18359375,8.18359375 7.23046875,8.18359375 L8.00976562,8.18359375 C8.07617187,8.18359375 8.11230469,8.10644531 8.06933594,8.05566406 L5.50585937,5 Z" id="路径" fill="#FFFFFF" fill-rule="evenodd"></path>
                    </g>
                </g>
            </g>
        </g>
    </g>
</svg>