<?xml version="1.0" encoding="UTF-8"?>
<svg width="10px" height="10px" viewBox="0 0 10 10" version="1.1" xmlns="http://www.w3.org/2000/svg" xmlns:xlink="http://www.w3.org/1999/xlink">
    <!-- Generator: Sketch 63.1 (92452) - https://sketch.com -->
    <title>放大</title>
    <desc>Created with Sketch.</desc>
    <g id="页面-1" stroke="none" stroke-width="1" fill="none" fill-rule="evenodd">
        <g id="8-点击字段-展示字段信息-浮层" transform="translate(-1319.000000, -287.000000)">
            <g id="编组-21备份-2" transform="translate(1280.000000, 280.000000)">
                <g id="放大" transform="translate(37.000000, 5.000000)">
                    <rect id="矩形" x="0" y="0" width="14" height="14"></rect>
                    <path d="M7.76888889,6.21388889 L7.76888889,2.77777778 C7.76888889,2.34833333 7.42055556,2 6.99111111,2 C6.56222222,2 6.21388889,2.34833333 6.21388889,2.77777778 L6.21388889,6.21388889 L2.77777778,6.21388889 C2.34833333,6.21388889 2,6.56222222 2,6.99111111 C2,7.42111111 2.34833333,7.76944444 2.77777778,7.76944444 L6.21388889,7.76944444 L6.21388889,11.205 C6.21388889,11.635 6.56222222,11.9833333 6.99111111,11.9833333 C7.42055556,11.9833333 7.76888889,11.635 7.76888889,11.205 L7.76888889,7.76944444 L11.205,7.76944444 C11.6344444,7.76944444 11.9827778,7.42111111 11.9827778,6.99111111 C11.9827778,6.56222222 11.6344444,6.21388889 11.205,6.21388889 L7.76888889,6.21388889 Z" id="Fill-3" fill="#9597A5"></path>
                </g>
            </g>
        </g>
    </g>
</svg>