<?xml version="1.0" encoding="UTF-8"?>
<svg width="10px" height="10px" viewBox="0 0 10 10" version="1.1" xmlns="http://www.w3.org/2000/svg" xmlns:xlink="http://www.w3.org/1999/xlink">
    <!-- Generator: Sketch 63.1 (92452) - https://sketch.com -->
    <title>字段</title>
    <desc>Created with Sketch.</desc>
    <g id="页面-1" stroke="none" stroke-width="1" fill="none" fill-rule="evenodd">
        <g id="8-点击字段-展示字段信息-浮层" transform="translate(-1177.000000, -669.000000)">
            <g id="Group-7" transform="translate(1168.000000, 658.000000)">
                <g id="编组-5">
                    <g id="1.通用/2.Icon图标/Fill/数据地图/字段" transform="translate(8.000000, 10.000000)">
                        <g id="字段">
                            <path d="M9.6489851,1.11627907 L2.18357331,1.11627907 C1.90001943,1.11627907 1.62812022,1.22911232 1.42788238,1.42987989 C1.22764455,1.63064745 1.11552905,1.90284382 1.11627175,2.18639671 L1.11627175,9.66027907 C1.12247039,10.245314 1.59850566,10.7162791 2.18357331,10.7162791 L9.6489851,10.7162791 C10.2340528,10.7162791 10.710088,10.245314 10.7162866,9.66027907 L10.7162866,2.18639671 C10.7170293,1.90284382 10.6049138,1.63064745 10.404676,1.42987989 C10.2044382,1.22911232 9.93253894,1.11627907 9.6489851,1.11627907 Z M8.05086739,4.32098495 L6.44992625,4.32098495 L6.44992625,8.05933786 C6.44992625,8.35406302 6.21100432,8.5929849 5.91627919,8.5929849 C5.62155406,8.5929849 5.38263213,8.35406302 5.38263213,8.05933786 L5.38263213,4.32098495 L3.78169096,4.32098495 C3.48696583,4.32098495 3.2480439,4.08206302 3.2480439,3.78733789 C3.2480439,3.49261276 3.48696583,3.25369083 3.78169096,3.25369083 L8.05086739,3.25369083 C8.34559255,3.25369083 8.58451451,3.49261276 8.58451451,3.78733789 C8.58451451,4.08206302 8.34559255,4.32098495 8.05086739,4.32098495 L8.05086739,4.32098495 Z" id="形状" fill-opacity="0.45" fill="#FFFFFF" fill-rule="nonzero"></path>
                            <rect id="矩形" x="0" y="0" width="12" height="12"></rect>
                        </g>
                    </g>
                </g>
            </g>
        </g>
    </g>
</svg>