<?xml version="1.0" standalone="no"?>
<!DOCTYPE svg PUBLIC "-//W3C//DTD SVG 1.1//EN" "http://www.w3.org/Graphics/SVG/1.1/DTD/svg11.dtd">
<svg t="1691134956667" class="icon" viewBox="0 0 1024 1024" version="1.1" xmlns="http://www.w3.org/2000/svg" p-id="4440" xmlns:xlink="http://www.w3.org/1999/xlink" width="250" height="200">
<path fill="rgb(149, 151, 165)" d="M929 1022H95c-51.2 0-93-41.8-93-93V95C2 43.8 43.8 2 95 2h834c51.2 0 93 41.8 93 93v834c0 51.2-41.8 93-93 93z" p-id="4441"></path>
<path d="M915.7 973.7H108.3c-31.9 0-58-26.1-58-58V108.3c0-31.9 26.1-58 58-58h807.4c31.9 0 58 26.1 58 58v807.4c0 31.9-26.1 58-58 58z" fill="#FFFFFF" p-id="4442"></path>
<path fill="rgb(149, 151, 165)" d="M594.1 240c-10.2-2.4-17-12.4-15.9-23.5l0.2-1.6-0.2-1.6c-1.2-11.1 5.6-21 15.8-23.3h272.7c10.5 2.1 17.4 12 16.2 23.3l-0.2 1.7 0.2 1.7c1.2 11.3-5.7 21.2-16.2 23.3H594.1zM594 437.6c-10.3-2.2-17-12.2-15.8-23.3l0.2-1.6-0.2-1.6c-1.1-11 5.7-21 15.9-23.5h272.6c10.5 2.1 17.4 12 16.2 23.3l-0.2 1.7 0.2 1.7c1.2 11.3-5.7 21.2-16.2 23.3H594zM595.1 635.8c-9.9-3.8-16.5-13.8-16.5-25s6.6-21.2 16.5-25h270.8c10.6 3.3 17.6 13.3 17.6 25s-7.1 21.7-17.7 25H595.1zM288.5 635.9c-13 0-23.6-11.2-23.6-25v-371H152.8c-10.1-2.4-16.9-12.5-15.9-23.5l0.2-1.6-0.2-1.6c-1.2-11.1 5.5-21 15.8-23.3h273.5c7.8 0 14.3 11.5 14.3 25v0.9l0.1 0.9c1.2 11.1-5.5 21-15.8 23.3H312.1v370.9c0 13.8-10.6 25-23.6 25zM160.7 834c-13 0-23.6-11.2-23.6-25s10.6-25 23.6-25h702.8c13 0 23.6 11.2 23.6 25s-10.6 25-23.6 25H160.7z" p-id="4443"></path></svg>

