<?xml version="1.0" encoding="UTF-8"?>
<svg width="12px" height="12px" viewBox="0 0 12 12" version="1.1" xmlns="http://www.w3.org/2000/svg" xmlns:xlink="http://www.w3.org/1999/xlink">
    <!-- Generator: Sketch 63.1 (92452) - https://sketch.com -->
    <title>编组 12</title>
    <desc>Created with Sketch.</desc>
    <g id="页面-1" stroke="none" stroke-width="1" fill="none" fill-rule="evenodd">
        <g id="1-默认样式" transform="translate(-539.000000, -538.000000)" fill="#000000">
            <g id="编组-25备份-2" transform="translate(355.000000, 528.000000)">
                <g id="编组-2备份-4">
                    <g id="编组-12" transform="translate(182.000000, 8.000000)">
                        <g id="1.通用/2.Icon图标/Line/Warning-Circle" transform="translate(2.000000, 2.000000)">
                            <rect id="矩形" fill-rule="nonzero" opacity="0" x="0" y="0" width="12" height="12"></rect>
                            <path d="M6,0.75 C8.89921875,0.75 11.25,3.10078125 11.25,6 C11.25,8.89921875 8.89921875,11.25 6,11.25 C3.10078125,11.25 0.75,8.89921875 0.75,6 C0.75,3.10078125 3.10078125,0.75 6,0.75 Z M6,1.640625 C3.59296875,1.640625 1.640625,3.59296875 1.640625,6 C1.640625,8.40703125 3.59296875,10.359375 6,10.359375 C8.40703125,10.359375 10.359375,8.40703125 10.359375,6 C10.359375,3.59296875 8.40703125,1.640625 6,1.640625 Z M6,7.5 C6.31066017,7.5 6.5625,7.75183983 6.5625,8.0625 C6.5625,8.37316017 6.31066017,8.625 6,8.625 C5.68933983,8.625 5.4375,8.37316017 5.4375,8.0625 C5.4375,7.75183983 5.68933983,7.5 6,7.5 Z M6.28125,3.375 C6.3328125,3.375 6.375,3.4171875 6.375,3.46875 L6.375,3.46875 L6.375,6.65625 C6.375,6.7078125 6.3328125,6.75 6.28125,6.75 L6.28125,6.75 L5.71875,6.75 C5.6671875,6.75 5.625,6.7078125 5.625,6.65625 L5.625,6.65625 L5.625,3.46875 C5.625,3.4171875 5.6671875,3.375 5.71875,3.375 L5.71875,3.375 Z" id="形状结合" fill-opacity="0.45" fill-rule="evenodd"></path>
                        </g>
                    </g>
                </g>
            </g>
        </g>
    </g>
</svg>