<?xml version="1.0" encoding="UTF-8"?>
<svg width="12px" height="12px" viewBox="0 0 12 12" version="1.1" xmlns="http://www.w3.org/2000/svg" xmlns:xlink="http://www.w3.org/1999/xlink">
    <!-- Generator: Sketch 63.1 (92452) - https://sketch.com -->
    <title>编组</title>
    <desc>Created with Sketch.</desc>
    <g id="页面-1" stroke="none" stroke-width="1" fill="none" fill-rule="evenodd">
        <g id="8-点击字段-展示字段信息-浮层" transform="translate(-1350.000000, -286.000000)">
            <g id="编组-22" transform="translate(1344.000000, 280.000000)">
                <g id="编组" transform="translate(5.000000, 5.000000)">
                    <polygon id="路径" points="0 0 14 0 14 14 0 14"></polygon>
                    <path d="M11.6666667,1.75 L12.8333333,1.75 L12.8333333,5.25 L11.6666667,5.25 L11.6666667,2.91666667 L9.33333333,2.91666667 L9.33333333,1.75 L11.6666667,1.75 Z M2.33333333,1.75 L4.66666667,1.75 L4.66666667,2.91666667 L2.33333333,2.91666667 L2.33333333,5.25 L1.16666667,5.25 L1.16666667,1.75 L2.33333333,1.75 Z M11.6666667,11.0833333 L11.6666667,8.75 L12.8333333,8.75 L12.8333333,12.25 L9.33333333,12.25 L9.33333333,11.0833333 L11.6666667,11.0833333 Z M2.33333333,11.0833333 L4.66666667,11.0833333 L4.66666667,12.25 L1.16666667,12.25 L1.16666667,8.75 L2.33333333,8.75 L2.33333333,11.0833333 Z" id="形状" fill="#9597A5" fill-rule="nonzero"></path>
                </g>
            </g>
        </g>
    </g>
</svg>