<?xml version="1.0" encoding="UTF-8"?>
<svg width="14px" height="14px" viewBox="0 0 14 14" version="1.1" xmlns="http://www.w3.org/2000/svg" xmlns:xlink="http://www.w3.org/1999/xlink">
    <!-- Generator: Sketch 63.1 (92452) - https://sketch.com -->
    <title>应用系统</title>
    <desc>Created with Sketch.</desc>
    <g id="页面-1" stroke="none" stroke-width="1" fill="none" fill-rule="evenodd">
        <g id="应用系统" transform="translate(-1.000000, -1.000000)">
            <g id="页面-1" opacity="0.45" transform="translate(1.116279, 0.744186)" fill="#FFFFFF" fill-rule="nonzero">
                <g id="编组备份-3">
                    <path d="M1.08651163,0.773953488 L5.29860465,0.773953488 C5.49432227,0.744938309 5.69209441,0.811439121 5.83051985,0.952809781 C5.96894529,1.09418044 6.0312682,1.29330862 5.99813953,1.48837209 L5.99813953,5.68186047 C6.02562078,5.87482733 5.96096714,6.06950785 5.82350826,6.20769789 C5.68604938,6.34588793 5.49171459,6.41157345 5.29860465,6.38511628 L1.08651163,6.38511628 C0.89104322,6.41684379 0.692157213,6.35350638 0.551033071,6.2145873 C0.409908928,6.07566822 0.343447497,5.87780425 0.372093023,5.68186047 L0.372093023,1.48837209 C0.337629716,1.29031415 0.40170928,1.08787475 0.54386178,0.945722246 C0.68601428,0.803569745 0.888453689,0.739490181 1.08651163,0.773953488 Z" id="路径"></path>
                    <path d="M1.08651163,7.81395349 L5.29860465,7.81395349 C5.49171459,7.78749632 5.68604938,7.85318183 5.82350826,7.99137188 C5.96096714,8.12956192 6.02562078,8.32424243 5.99813953,8.5172093 L5.99813953,12.7144186 C6.02562078,12.9073855 5.96096714,13.102066 5.82350826,13.240256 C5.68604938,13.3784461 5.49171459,13.4441316 5.29860465,13.4176744 L1.08651163,13.4176744 C0.89104322,13.4494019 0.692157213,13.3860645 0.551033071,13.2471454 C0.409908928,13.1082264 0.343447497,12.9103624 0.372093023,12.7144186 L0.372093023,8.50604651 C0.347376266,8.31189372 0.41557565,8.11744243 0.556149455,7.98126155 C0.696723259,7.84508068 0.893241108,7.78308715 1.08651163,7.81395349 L1.08651163,7.81395349 Z" id="路径-2"></path>
                    <path d="M8.11906977,7.81395349 L12.3311628,7.81395349 C12.5208749,7.79080192 12.7106875,7.85623802 12.8458294,7.99137992 C12.9809713,8.12652182 13.0464074,8.31633443 13.0232558,8.50604651 L13.0232558,12.7144186 C13.0507371,12.9073855 12.9860834,13.102066 12.8486245,13.240256 C12.7111657,13.3784461 12.5168309,13.4441316 12.3237209,13.4176744 L8.11906977,13.4176744 C7.92595983,13.4441316 7.73162504,13.3784461 7.59416616,13.240256 C7.45670728,13.102066 7.39205364,12.9073855 7.41953488,12.7144186 L7.41953488,8.50604651 C7.39589973,8.31487226 7.46226191,8.12354619 7.59919813,7.98806673 C7.73613436,7.85258727 7.92815923,7.7882751 8.11906977,7.81395349 Z" id="路径-3"></path>
                    <path d="M7.25953488,3.05116279 L9.76372093,0.546976744 C9.88032004,0.39085826 10.06375,0.298912648 10.2586047,0.298912648 C10.4534593,0.298912648 10.6368893,0.39085826 10.7534884,0.546976744 L13.2576744,3.05116279 C13.4137366,3.16697835 13.5057496,3.34984448 13.5057496,3.54418605 C13.5057496,3.73852761 13.4137366,3.92139374 13.2576744,4.0372093 L10.7534884,6.54511628 C10.6359925,6.69984619 10.4528896,6.7907161 10.2586047,6.7907161 C10.0643197,6.7907161 9.88121684,6.69984619 9.76372093,6.54511628 L7.25953488,4.0372093 C7.10487367,3.92048531 7.01394884,3.73795029 7.01394884,3.54418605 C7.01394884,3.3504218 7.10487367,3.16788678 7.25953488,3.05116279 Z" id="路径-4"></path>
                </g>
            </g>
            <rect id="矩形" x="0" y="0" width="15.6353488" height="15.6353488"></rect>
        </g>
    </g>
</svg>