<?xml version="1.0" encoding="UTF-8"?>
<svg width="13px" height="13px" viewBox="0 0 13 13" version="1.1" xmlns="http://www.w3.org/2000/svg" xmlns:xlink="http://www.w3.org/1999/xlink">
    <!-- Generator: Sketch 63.1 (92452) - https://sketch.com -->
    <title>表格</title>
    <desc>Created with Sketch.</desc>
    <g id="页面-1" stroke="none" stroke-width="1" fill="none" fill-rule="evenodd" fill-opacity="0.65">
        <g id="1-默认样式" transform="translate(-717.000000, -538.000000)" fill="#FFFFFF" fill-rule="nonzero">
            <g id="主表" transform="translate(695.000000, 528.000000)">
                <g id="编组-25备份" transform="translate(14.000000, 0.000000)">
                    <g id="编组-2备份-4">
                        <g id="表格" transform="translate(8.000000, 9.000000)">
                            <g id="编组" transform="translate(0.976744, 1.302326)">
                                <path d="M7.73795,8.50294014 L7.73795,12 L4.25146592,12 L4.25146592,8.50294014 L7.73795,8.50294014 Z M3.4935346,8.50294014 L3.4935346,11.985899 L1.49823633,11.985899 C0.677633277,11.9840044 0.0112464185,11.3223326 0.00352526196,10.5017637 L0.00352526196,8.50294014 L3.4935346,8.50294014 Z M11.9894159,8.50294014 L11.9894159,10.5017637 C11.9816691,11.3250807 11.3110054,11.9878727 10.4876543,11.9859033 L8.49940658,11.9859033 L8.49940658,8.50294014 L11.9894159,8.50294014 Z M3.48648408,4.25147421 L3.48648408,7.74853408 L-2.87325719e-13,7.74853408 L-2.87325719e-13,4.25147421 L3.48648408,4.25147421 Z M7.73795,4.25147421 L7.73795,7.74853408 L4.25146592,7.74853408 L4.25146592,4.25147421 L7.73795,4.25147421 Z M11.9858907,4.25147421 L11.9858907,7.74853408 L8.49940658,7.74853408 L8.49940658,4.25147421 L11.9858907,4.25147421 Z M10.4876543,4.1264248e-06 C10.8862334,-0.000930652001 11.2687581,0.15698867 11.5505968,0.438827394 C11.8324355,0.720666119 11.9903549,1.10319084 11.9894201,1.50176988 L11.9894201,3.50059342 L0.00352109892,3.50059342 L0.00352109892,1.50176988 C0.00258920361,1.10441257 0.159541631,0.722958246 0.43985457,0.441323076 C0.720167509,0.159687907 1.10087901,0.000942148026 1.49823633,4.1264248e-06 L10.4876543,4.1264248e-06 Z" id="形状结合"></path>
                            </g>
                        </g>
                    </g>
                </g>
            </g>
        </g>
    </g>
</svg>