<?xml version="1.0" encoding="UTF-8"?>
<svg width="13px" height="14px" viewBox="0 0 13 14" version="1.1" xmlns="http://www.w3.org/2000/svg" xmlns:xlink="http://www.w3.org/1999/xlink">
    <!-- Generator: Sketch 63.1 (92452) - https://sketch.com -->
    <title>标签</title>
    <desc>Created with Sketch.</desc>
    <g id="页面-1" stroke="none" stroke-width="1" fill="none" fill-rule="evenodd">
        <g id="标签" transform="translate(0.000000, -1.000000)">
            <g id="页面-1" opacity="0.45" transform="translate(0.744186, 1.488372)" fill="#FFFFFF" fill-rule="nonzero">
                <g id="编组备份-7">
                    <path d="M11.8548837,1.62604651 C11.8371022,1.45567037 11.7838686,1.29089971 11.6986047,1.14232558 L11.6986047,1.38790698 L11.5348837,6.04651163 C11.5342543,6.32785096 11.4186467,6.59670579 11.2148837,6.79069767 L6.3255814,12.1674419 C6.1092181,12.3769328 5.81929646,12.4931686 5.51813953,12.4911628 L6.48186047,13.2353488 C6.68464389,13.3762446 6.93575017,13.4292358 7.17817347,13.3822926 C7.42059676,13.3353493 7.63377125,13.192454 7.76930233,12.9860465 L12.0334884,7.03255814 C12.1870928,6.81421599 12.2725507,6.55525241 12.2790698,6.28837209 L11.8548837,1.62604651 Z" id="路径"></path>
                    <path d="M10.4483721,0.297674419 L6.02790698,0.543255814 C5.77916423,0.566260711 5.54811469,0.681785481 5.38046512,0.866976744 L0.32,6.07627907 C-0.0610832174,6.44662566 -0.0981410269,7.04599545 0.234418605,7.46046512 L4.41302326,11.8623256 C4.73302326,12.267907 5.38046512,12.1823256 5.78232558,11.7767442 L10.8539535,6.56744186 C11.0535278,6.37088675 11.1672294,6.10335368 11.1702326,5.82325581 L11.415814,1.19069767 C11.4112101,0.942176329 11.3053272,0.706311204 11.1226815,0.537715199 C10.9400358,0.369119194 10.6964672,0.282413577 10.4483721,0.297674419 Z M9.41023256,4.1227907 C9.19033706,4.35442138 8.88496644,4.48558355 8.5655814,4.48558355 C8.24619635,4.48558355 7.94082573,4.35442138 7.72093023,4.1227907 C7.49208282,3.8975707 7.36320832,3.5899216 7.36320832,3.26883721 C7.36320832,2.94775282 7.49208282,2.64010371 7.72093023,2.41488372 C7.94082573,2.18325304 8.24619635,2.05209086 8.5655814,2.05209086 C8.88496644,2.05209086 9.19033706,2.18325304 9.41023256,2.41488372 C9.81156436,2.91345596 9.81156436,3.62421846 9.41023256,4.1227907 L9.41023256,4.1227907 Z" id="形状"></path>
                </g>
            </g>
            <rect id="矩形" x="0" y="0" width="15.6353488" height="15.6353488"></rect>
        </g>
    </g>
</svg>