<?xml version="1.0" encoding="UTF-8"?>
<svg width="10px" height="8px" viewBox="0 0 10 8" version="1.1" xmlns="http://www.w3.org/2000/svg" xmlns:xlink="http://www.w3.org/1999/xlink">
    <!-- Generator: Sketch 63.1 (92452) - https://sketch.com -->
    <title>收缩icon</title>
    <desc>Created with Sketch.</desc>
    <g id="页面-1" stroke="none" stroke-width="1" fill="none" fill-rule="evenodd">
        <g id="收缩icon" transform="translate(-3.000000, -4.000000)" fill-rule="nonzero">
            <rect id="矩形" transform="translate(8.000000, 8.000000) scale(-1, 1) rotate(90.000000) translate(-8.000000, -8.000000) " x="0" y="0" width="16" height="16" rx="2"></rect>
            <g id="1.通用/2.Icon图标/Line/doubleleft" transform="translate(8.000000, 8.000000) rotate(90.000000) translate(-8.000000, -8.000000) translate(2.000000, 2.000000)" fill="#fff">
                <g id="minus-square" opacity="0">
                    <rect id="矩形" fill="#000000" fill-rule="nonzero" x="0" y="0" width="12" height="12"></rect>
                </g>
                <g id="doubleleft">
                    <rect id="矩形" fill="#000000" fill-rule="nonzero" opacity="0" x="0" y="0" width="12" height="12"></rect>
                    <path d="M3.19804687,6 L6.30820312,2.02617188 C6.35625,1.96523438 6.31289062,1.875 6.234375,1.875 L5.32851562,1.875 C5.27109375,1.875 5.21601562,1.90195313 5.18085937,1.94648437 L2.1890625,5.76914063 C2.08242187,5.90507813 2.08242187,6.09609375 2.1890625,6.23203125 L5.18085937,10.0535156 C5.21601562,10.0992188 5.27109375,10.125 5.32851562,10.125 L6.234375,10.125 C6.31289062,10.125 6.35625,10.0347656 6.30820312,9.97382813 L3.19804687,6 Z M6.76054688,6 L9.87070313,2.02617188 C9.91875,1.96523438 9.87539062,1.875 9.796875,1.875 L8.89101563,1.875 C8.83359375,1.875 8.77851563,1.90195313 8.74335938,1.94648437 L5.7515625,5.76914063 C5.64492188,5.90507813 5.64492188,6.09609375 5.7515625,6.23203125 L8.74335938,10.0535156 C8.77851563,10.0992188 8.83359375,10.125 8.89101563,10.125 L9.796875,10.125 C9.87539063,10.125 9.91875,10.0347656 9.87070313,9.97382813 L6.76054688,6 Z" id="形状" fill-opacity="0.45"></path>
                </g>
            </g>
        </g>
    </g>
</svg>