<svg xmlns="http://www.w3.org/2000/svg" viewBox="0 0 16 16" width="26" height="26" style="border-color: rgba(0,0,0,0);border-width: bpx;border-style: undefined" filter="none">
    
    <g>
        <g id="页面-1" stroke="none" stroke-width="1" fill="none" fill-rule="evenodd">        <g id="Hive" fill-rule="nonzero" fill="rgba(255,255,255,1)">            <rect id="矩形" fill="rgba(255,255,255,1)" opacity="0" x="0" y="0" width="16" height="16" stroke="none"></rect>            <path d="M9.5104,11.9424 L9.5104,14.912 L10.2357333,14.912 L10.2357333,13.5466667 L10.3893333,13.5466667 L10.3893333,14.912 L11.1232,14.912 L11.1232,11.9424 L10.3893333,11.9424 L10.3893333,13.0432 L10.2357333,13.0432 L10.2357333,11.9424 L9.5104,11.9424 L9.5104,11.9424 Z M12.0362667,11.9424 L11.328,11.9424 L11.328,14.912 L12.0362667,14.912 L12.0362667,11.9424 L12.0362667,11.9424 Z M12.1472,11.9424 L12.7104,14.912 L13.5552,14.912 L14.1184,11.9424 L13.3674667,11.9424 L13.1797333,13.2138667 C13.1626667,13.2650667 13.1114667,13.2650667 13.1029333,13.2138667 L12.9152,11.9424 L12.1472,11.9424 Z M15.68,11.9424 L14.272,11.9424 L14.272,14.912 L15.68,14.912 L15.68,14.1354667 L14.8949333,14.1269333 L14.8949333,13.7941333 L15.2704,13.7941333 L15.2704,13.0176 L14.8949333,13.0176 L14.8949333,12.7189333 L15.68,12.7189333 L15.68,11.9424 L15.68,11.9424 Z" id="形状" fill="rgba(255,255,255,1)" stroke="none"></path>            <path d="M8.06826667,2.9312 C7.9488,2.60693333 3.86133333,1.01973333 3.81013333,1.1904 C3.0592,1.38666667 2.752,2.24853333 2.24,2.79466667 L1.09653333,2.7264 C0.593066667,3.37493333 0.328533333,4.04053333 0.507733333,4.7232 C1.15626667,5.61066667 1.9072,6.3616 2.368,7.4624 C2.40213333,7.98293333 4.61226667,7.5136 5.09013333,7.4112 C4.4416,7.872 3.8784,8.5888 4.12586667,10.6624 C4.34773333,11.6352 4.50133333,12.7189333 6.45546667,13.8112 C6.71146667,13.9562667 7.24906667,14.1269333 7.57333333,14.2464 C7.88906667,14.3914667 8.256,14.4512 9.29706667,14.1354667 C9.90293333,13.8794667 10.5514667,13.7173333 11.1402667,13.4613333 L10.432,13.4954667 C9.4592,13.5125333 8.69973333,13.5893333 8.46933333,13.3162667 L7.57333333,11.7546667 L8.09386667,10.7392 C8.8192,10.816 9.05813333,11.4048 9.69813333,11.6266667 L10.4490667,11.072 C12.6336,12.3605333 13.504,10.2528 13.7514667,8.6144 C13.7258667,7.9488 12.3008,8.82773333 12.3946667,8.512 C12.4288,7.7952 11.84,6.85653333 11.4645333,6.12266667 L11.8997333,4.42453333 C12.096,4.24533333 10.9781333,2.35946667 10.0650667,2.12906667 C9.27146667,1.91573333 8.06826667,2.9312 8.06826667,2.9312 Z" id="路径" fill="rgba(255,255,255,1)" stroke="none"></path>            <path d="M11.6608,6.53226667 C11.6693333,6.71146667 11.6693333,6.93333333 11.6864,7.06986667 C11.6864,7.17226667 11.6010667,7.1808 11.5413333,7.19786667 L11.968,7.35146667 C12.0533333,7.49653333 12.1216,7.63306667 12.1898667,7.77813333 C12.2666667,8.128 12.2069333,8.13653333 12.1557333,8.16213333 C12.0021333,8.16213333 11.8485333,8.16213333 11.7034667,8.13653333 C11.7717333,8.17066667 11.7802667,8.19626667 11.7888,8.23893333 C11.7973333,8.31573333 11.7461333,8.42666667 11.6608,8.5376 C11.7888,8.60586667 12.0192,8.67413333 12.1898667,8.7424 L12.3861333,8.3072 C12.2922667,7.67573333 12.0277333,7.09546667 11.6608,6.53226667 L11.6608,6.53226667 Z M12.4544,8.6656 C12.6933333,8.768 13.0176,8.73386667 13.4698667,8.50346667 C13.5381333,8.45226667 13.5978667,8.4864 13.4784,8.5632 C12.8810667,9.09226667 12.5994667,8.82773333 12.4544,8.6656 L12.4544,8.6656 Z" id="形状" fill="rgba(255,255,255,1)" stroke="none"></path>            <path d="M13.5125333,8.4352 C13.5808,8.57173333 13.5381333,8.67413333 13.5125333,8.7936 C13.4357333,9.37386667 13.2565333,9.82613333 12.9066667,10.304 C11.7632,12.1472 10.6026667,10.9952 9.68106667,10.2442667 L9.29706667,11.2 C9.28,11.2853333 9.19466667,11.3450667 9.792,11.6096 L10.3978667,11.1829333 C12.7189333,12.9408 14.3573333,8.70826667 13.5125333,8.4352 L13.5125333,8.4352 Z M9.96266667,10.0821333 C9.80906667,10.0906667 9.33973333,10.2528 9.32266667,10.3466667 L9.536,10.0309333 L9.96266667,10.0821333 Z M9.65546667,8.128 C9.68106667,8.128 9.8176,8.16213333 9.80906667,8.1536 C9.792,8.14506667 9.80906667,8.34986667 9.85173333,8.45226667 L9.68106667,8.8192 C10.0053333,8.45226667 10.5088,8.46933333 10.9781333,8.42666667 L10.7562667,8.29013333 C10.7989333,8.16213333 10.7477333,8.05973333 10.7306667,7.9488 L9.65546667,8.128 Z M10.4490667,7.0272 C10.1077333,7.1296 9.77493333,7.3088 9.55306667,7.67573333 C9.72373333,7.06986667 9.75786667,7.09546667 9.80906667,7.06133333 C10.048,6.9504 10.2442667,7.01866667 10.4490667,7.0272 Z" id="形状" fill="rgba(255,255,255,1)" stroke="none"></path>            <path d="M8.60586667,14.1354667 C8.18773333,14.5962667 7.2576,14.1013333 6.4896,13.8453333 C4.52693333,12.5994667 4.14293333,11.4218667 4.11733333,10.2698667 C4.01493333,8.6144 4.52693333,7.65866667 5.16693333,7.42826667 C4.74026667,8.24746667 4.544,9.7152 4.74026667,10.8074667 C4.9024,11.4133333 4.9024,12.4373333 5.91786667,12.992 C6.4128,13.2736 6.2848,13.4869333 6.6176,13.7514667 C6.98453333,14.0416 8.01706667,14.3146667 8.60586667,14.1354667 Z M9.2288,6.50666667 C8.52053333,5.50826667 7.53066667,5.1328 6.4128,5.09013333 C6.63466667,5.01333333 6.86506667,4.9792 7.08693333,4.86826667 C7.13813333,4.80853333 7.12106667,4.70613333 7.104,4.60373333 C6.0288,4.32213333 5.34613333,3.97226667 4.48426667,3.648 L6.80533333,4.2112 C8.37546667,4.27093333 8.23893333,4.66346667 9.2288,6.50666667 Z" id="形状" fill="rgba(255,255,255,1)" stroke="none"></path>            <path d="M9.98826667,6.02026667 C9.46773333,5.27786667 8.96426667,4.37333333 8.27306667,3.79306667 C6.6176,3.05066667 4.97066667,2.496 3.05066667,1.99253333 L3.66506667,1.20746667 C5.70453333,1.6768 7.616,2.45333333 9.3312,3.73333333 C9.62986667,4.4672 9.8176,5.20106667 9.98826667,6.02026667 L9.98826667,6.02026667 Z M11.0378667,4.70613333 C11.0378667,4.70613333 10.7477333,4.04906667 10.6026667,3.8016 C10.2698667,3.43466667 10.1077333,2.752 9.42506667,2.42773333 C9.6384,2.48746667 9.78346667,2.4192 10.2186667,2.81173333 L10.9098667,4.11733333 L11.0378667,4.70613333 Z" id="形状" fill="rgba(255,255,255,1)" stroke="none"></path>            <path d="M11.4048,5.84106667 C11.4730667,5.26933333 11.6010667,4.3648 11.456,3.99786667 C11.0464,3.45173333 10.6368,2.88 10.2272,2.35946667 C10.1589333,2.29973333 10.1077333,2.20586667 10.0565333,2.14613333 C10.6368,2.29973333 11.2426667,2.7008 12.0533333,4.288 L11.4048,5.84106667 Z" id="路径" fill="rgba(255,255,255,1)" stroke="none"></path>            <path d="M8.96426667,5.90933333 C8.73386667,5.73013333 8.52906667,5.09013333 8.1792,4.9536 C7.85493333,4.928 7.73546667,4.8256 7.3088,4.91093333 C7.4624,4.83413333 7.60746667,4.73173333 7.7696,4.68053333 C7.88053333,4.65493333 7.98293333,4.68053333 8.09386667,4.6976 C8.11946667,4.68906667 8.13653333,4.672 8.128,4.6464 C7.70133333,4.38186667 6.8224,4.38186667 6.22506667,4.22826667 C6.91626667,4.25386667 7.67573333,4.2112 8.19626667,4.38186667 C8.6144,4.7488 8.75093333,5.44853333 8.96426667,5.90933333 L8.96426667,5.90933333 Z M10.2272,2.81173333 C10.3210667,2.82026667 10.8330667,3.63093333 10.8586667,3.76746667 C10.9013333,4.06613333 11.0037333,4.3904 11.0378667,4.70613333 C10.9525333,4.40746667 10.8586667,4.1088 10.7477333,3.81866667 C10.7136,3.73333333 10.6282667,3.55413333 10.3893333,3.2896 C10.2784,3.10186667 10.2528,2.9568 10.2272,2.81173333 L10.2272,2.81173333 Z M11.968,7.24053333 L11.7461333,7.24053333 L11.9850667,7.34053333 L11.968,7.24053333 Z M10.4661333,7.0272 C10.2442667,7.0016 10.0224,6.99306667 9.80053333,7.04426667 C9.70666667,7.16373333 9.70666667,7.29173333 9.664,7.40266667 C9.92853333,7.104 10.0394667,7.08693333 10.4661333,7.0272 Z M13.4869333,8.55466667 C13.3674667,8.64853333 13.3504,8.7424 12.9834667,8.85333333 C12.7189333,8.91306667 12.5653333,8.81066667 12.4458667,8.6656 C12.6336,8.7168 12.6677333,8.86186667 13.1712,8.69973333 L13.4869333,8.55466667 L13.4869333,8.55466667 Z M12.3861333,8.6144 C12.3008,8.86186667 12.1984,9.1008 12.1045333,9.3312 C11.8741333,9.60426667 11.9765333,9.45066667 11.6266667,9.86026667 C11.7376,9.6896 11.8826667,9.52746667 11.9509333,9.34826667 C12.0021333,9.2288 12.0704,9.10933333 12.096,9.00693333 C12.0021333,8.96426667 11.8229333,8.95573333 11.7973333,8.9728 C11.4901333,9.152 11.4389333,9.33973333 11.2597333,9.52746667 C11.3877333,9.32266667 11.4986667,9.09226667 11.6522667,8.90453333 C11.6693333,8.87893333 11.7802667,8.87893333 11.8485333,8.86186667 C11.7376,8.8448 11.5413333,8.80213333 11.5242667,8.81066667 C11.328,8.86186667 11.2170667,9.03253333 11.0634667,9.14346667 C11.1744,8.98986667 11.2682667,8.82773333 11.4048,8.6912 C11.4218667,8.67413333 11.7888,8.70826667 11.9765333,8.78506667 L11.9765333,8.86186667 L12.0874667,8.90453333 L12.1728,8.69973333 L12.3861333,8.6144 Z M9.9712,10.0821333 C9.92,10.0650667 9.4848,10.0053333 9.4848,10.0224 C9.31413333,10.1418667 9.29706667,10.2528 9.29706667,10.3552 C9.57013333,10.0821333 9.5616,10.0821333 9.9712,10.0821333 L9.9712,10.0821333 Z M9.6384,8.11946667 C9.6384,8.11946667 9.95413333,8.0768 9.9456,8.1024 C9.92,8.21333333 9.98826667,8.47786667 9.98826667,8.4352 L9.80906667,8.58026667 C10.176,8.39253333 10.5685333,8.4352 10.9610667,8.40106667 C10.9610667,8.40106667 10.6282667,8.3072 10.6538667,8.3072 C10.7306667,8.29866667 10.6368,7.96586667 10.6112,7.95733333 C10.6709333,7.94026667 10.7392,7.9232 10.7989333,7.90613333 C10.3210667,7.78666667 10.048,7.85493333 9.6384,8.11946667 L9.6384,8.11946667 Z" id="形状" fill="rgba(255,255,255,1)" stroke="none"></path>            <path d="M12.3434667,8.3584 L12.2752,8.39253333 C12.2666667,8.18773333 12.0448,8.2048 11.8656,8.2048 L11.712,8.17066667 C11.7546667,8.21333333 11.8997333,8.21333333 11.84,8.29866667 C11.7888,8.32426667 11.7717333,8.4352 11.7461333,8.52906667 L11.6608,8.52906667 C11.8058667,8.5888 11.9424,8.63146667 12.096,8.69973333 L12.1898667,8.7168 L12.4117333,8.59733333 L12.3434667,8.3584 L12.3434667,8.3584 Z" id="路径" fill="rgba(255,255,255,1)" stroke="none"></path>            <path d="M10.2698667,8.28607429 C10.2357333,8.11887815 10.0565333,8.13977767 10.0224,8.24427526 C9.98826667,8.32787333 10.0224,8.91305984 10.0565333,8.80856225 C10.1162667,8.68316514 10.1930667,8.6413661 10.2784,8.6413661 C10.2954667,8.53686851 10.2869333,8.4114714 10.2698667,8.28607429 Z M11.968,9.14295454 C11.9850667,9.12205502 12.0192,8.82946177 12.0106667,8.74586369 C11.9850667,8.53686851 11.8229333,8.57866755 11.8229333,8.57866755 C11.7802667,8.6413661 11.7461333,8.95485888 11.7632,9.05935647 C11.7717333,9.16385406 11.9424,9.18475358 11.968,9.14295454 L11.968,9.14295454 Z" id="形状" fill="rgba(255,255,255,1)" stroke="none"></path>            <path d="M4.928,12.6336 L5.0304,12.6421333 C5.6448,12.9408 6.66026667,13.3930667 8.13653333,13.1541333 L8.36693333,13.5210667 C7.7184,13.8368 7.01866667,13.76 6.37013333,13.7856 L4.928,12.6336 Z M4.04053333,10.2357333 L4.34773333,11.5328 C5.17546667,12.0533333 6.592,12.6421333 7.7696,12.5909333 L7.50506667,11.9936 C5.04746667,11.4816 4.84266667,10.816 4.04053333,10.2357333 Z M4.80853333,7.58186667 C4.96213333,8.5888 5.1584,9.34826667 6.03733333,9.98826667 C6.57493333,10.3722667 7.104,10.7562667 7.75253333,11.072 C7.75253333,11.072 7.6928,11.3706667 7.65013333,11.3621333 C5.7216,11.1488 4.3136,9.55306667 4.14293333,8.8192 C4.30506667,8.26453333 4.544,7.91466667 4.80853333,7.58186667 L4.80853333,7.58186667 Z M5.73013333,7.01013333 C5.98613333,8.128 6.60053333,9.2544 7.2064,10.2784 C7.42826667,10.56 7.488,10.688 7.82933333,10.8586667 C8.29013333,11.0037333 8.62293333,10.9696 8.95573333,10.944 C8.86186667,10.7733333 8.78506667,10.5941333 8.67413333,10.432 C7.9232,9.83466667 8.26453333,9.28853333 8.46933333,8.9472 C8.0512,8.8448 7.49653333,8.6144 7.41973333,8.31573333 C7.30026667,7.36 7.36853333,7.06133333 7.488,6.5664 C6.9248,6.68586667 6.34453333,6.80533333 5.73013333,7.01013333 L5.73013333,7.01013333 Z" id="形状" fill="rgba(255,255,255,1)" stroke="none"></path>            <path d="M3.648,1.088 C3.46026667,1.20746667 3.28106667,1.38666667 3.0848,1.58293333 C2.76053333,1.91573333 2.5472,2.24 2.22293333,2.47893333 C2.15466667,2.53866667 1.97546667,2.624 1.74506667,2.64106667 C1.63413333,2.6496 1.56586667,2.66666667 1.3696,2.64106667 C1.1904,2.5472 1.02826667,2.60693333 0.866133333,2.8032 C0.686933333,3.0592 0.456533333,3.5456 0.362666667,3.86133333 C0.1664,4.63786667 0.661333333,5.2864 1.1392,5.78133333 C1.56586667,6.19093333 1.8048,6.45546667 1.97546667,6.83093333 C2.10346667,7.0784 2.20586667,7.4112 2.30826667,7.65013333 C2.3424,7.72693333 2.3424,7.72693333 2.4448,7.744 C2.66666667,7.7952 2.97386667,7.7952 3.24693333,7.81226667 C3.3664,7.81226667 3.52853333,7.81226667 3.68213333,7.7952 C3.89546667,7.75253333 4.14293333,7.7184 4.34773333,7.6416 C4.55253333,7.5904 4.73173333,7.52213333 4.89386667,7.4624 C4.8768,7.53066667 4.71466667,7.59893333 4.65493333,7.6928 C4.10026667,8.4864 3.94666667,9.19466667 4.04906667,10.304 C4.10026667,10.7989333 4.21973333,11.2085333 4.3904,11.6778667 C4.4672,11.8912 4.63786667,12.2325333 4.79146667,12.4544 C5.26933333,13.1285333 6.32746667,13.9818667 7.80373333,14.3146667 C8.05973333,14.3488 8.34986667,14.3317333 8.63146667,14.2549333 C9.3568,14.0330667 10.8501333,13.5125333 10.8501333,13.5125333 C10.8501333,13.5125333 9.52746667,13.6234667 8.93013333,13.5637333 C8.7936,13.5381333 8.64,13.5381333 8.5376,13.4357333 C8.52053333,13.4186667 8.4608,13.2992 8.50346667,13.2906667 C8.55466667,13.2906667 8.70826667,13.2309333 8.93866667,13.2053333 C8.44373333,13.1541333 8.45226667,13.1541333 8.41813333,13.0602667 C8.34986667,12.8896 8.27306667,12.7274667 8.18773333,12.5653333 C8.40106667,12.5824 8.88746667,12.608 9.0496,12.4458667 C9.0496,12.4458667 8.768,12.48 8.512,12.4458667 C8.42666667,12.4373333 8.2816,12.3861333 8.23893333,12.3690667 C8.128,12.3264 8.03413333,12.3093333 8.00853333,12.2837333 C7.96586667,12.1813333 7.94026667,12.1472 7.8976,12.0192 C7.82933333,11.84 7.82933333,11.6437333 7.81226667,11.4645333 C7.9744,11.6693333 8.18773333,11.84 8.4608,11.9253333 C8.4608,11.9168 8.8192,12.0789333 9.08373333,11.9936 L9.13493333,11.9765333 C9.13493333,11.9850667 8.96426667,11.9936 8.896,11.9594667 C8.36693333,11.7376 8.29013333,11.5413333 8.2048,11.4389333 L7.9744,11.0976 C8.04266667,10.9610667 8.08533333,10.9525333 8.17066667,10.9525333 C8.44373333,10.9866667 8.57173333,11.0037333 8.73386667,10.9696 C8.8448,11.2085333 8.87893333,11.4389333 9.13493333,11.6096 C9.9968,11.8656 10.1845333,11.5328 10.3978667,11.2426667 C11.0208,11.7034667 12.0362667,11.84 12.736,11.2512 C13.632,10.2186667 13.9136,8.5888 13.8368,8.49493333 C13.7258667,8.3072 13.5808,8.11093333 13.4528,8.13653333 C13.0005333,8.256 12.8384,8.4864 12.3946667,8.4352 C12.4458667,8.4352 12.5397333,8.4352 12.5397333,8.42666667 C12.5738667,8.0512 12.5397333,7.872 12.5226667,7.83786667 C12.3861333,7.5392 12.2069333,7.22346667 12.0874667,6.99306667 C12.0533333,6.94186667 11.9594667,6.57493333 11.8058667,6.42986667 C11.7376,6.37013333 11.5754667,6.22506667 11.5754667,6.22506667 L11.5584,6.3872 C11.5584,6.3872 11.6266667,6.39573333 11.6437333,6.49813333 C11.7376,6.8736 12.2069333,7.7696 12.2410667,7.81226667 C12.4117333,8.08533333 12.2581333,8.41813333 12.3861333,8.60586667 C12.3946667,8.63146667 12.6421333,8.60586667 12.8384,8.6144 C13.1541333,8.54613333 13.1370667,8.4096 13.4101333,8.384 C13.5978667,8.36693333 13.6149333,8.7168 13.6064,8.7424 C13.5722667,9.1264 13.4528,9.5616 13.2821333,9.9712 C12.9152,10.6794667 12.5056,11.3194667 11.9168,11.4048 C11.2,11.5328 10.8330667,11.2170667 10.4490667,11.0208 L10.304,11.1488 C9.80053333,11.6522667 9.2032,11.6010667 8.96426667,10.9525333 C8.8448,10.6965333 8.68266667,10.5429333 8.54613333,10.3296 L7.82933333,10.8501333 C7.7696,10.9696 7.6928,11.1658667 7.60746667,11.3792 C7.54773333,11.5328 7.49653333,11.7888 7.49653333,12.0021333 C7.40266667,12.1557333 7.81226667,12.7957333 8.0768,13.1797333 C8.1536,13.2906667 8.29866667,13.4954667 8.29866667,13.504 C8.34986667,13.6405333 8.4608,13.76 8.46933333,13.7685333 C8.95573333,14.4 7.86346667,14.2549333 7.63306667,14.2122667 C7.18933333,14.144 6.75413333,13.9562667 6.34453333,13.7088 C6.31893333,13.6917333 6.29333333,13.6832 6.27626667,13.6661333 C5.78986667,13.3589333 5.34613333,12.9664 4.96213333,12.5824 C4.73173333,12.3264 4.5184,11.7973333 4.35626667,11.4304 C4.11733333,10.5344 3.776,8.98133333 4.70613333,7.80373333 C4.76586667,7.73546667 4.8256,7.62453333 4.88533333,7.59893333 C5.1584,7.4112 5.4656,7.2832 5.78133333,7.21493333 L5.7472,7.01013333 C5.58506667,7.04426667 5.04746667,7.24906667 4.89386667,7.32586667 C4.544,7.42826667 4.25386667,7.53066667 3.81013333,7.6416 C3.66506667,7.65866667 3.52853333,7.65866667 3.38346667,7.6416 C3.06773333,7.59893333 2.5216,7.63306667 2.48746667,7.60746667 C2.27413333,7.3088 2.2144,6.76266667 2.01813333,6.47253333 C1.89866667,6.31893333 1.77066667,6.19093333 1.63413333,6.06293333 C1.1648,5.5936 0.7552,5.14133333 0.644266667,4.65493333 C0.618666667,4.50986667 0.541866667,4.3648 0.584533333,3.94666667 C0.695466667,3.55413333 0.8832,3.22986667 1.19893333,2.91413333 C1.5232,2.92266667 1.84746667,2.92266667 2.10346667,2.97386667 C2.22293333,2.99093333 2.46186667,3.02506667 2.70933333,3.11893333 C3.3408,3.34933333 4.16853333,3.74186667 4.16853333,3.74186667 C3.5456,3.40053333 2.84586667,2.9568 2.41066667,2.86293333 C2.3424,2.8544 2.30826667,2.82026667 2.28266667,2.76906667 C2.94826667,2.37653333 3.06773333,1.92426667 3.50293333,1.51466667 C3.6992,1.42933333 3.776,1.38666667 3.94666667,1.3696 C5.50826667,1.61706667 6.49813333,2.24 7.27466667,2.65813333 C7.5904,2.8288 7.88053333,2.9568 8.1536,3.11893333 C8.39253333,3.19573333 9.11786667,3.74186667 9.3312,4.04053333 C9.54453333,4.4928 9.70666667,4.98773333 9.85173333,5.4656 C9.95413333,5.952 10.048,6.14826667 10.048,6.14826667 C10.048,6.14826667 9.96266667,5.7472 9.9712,5.6704 C10.0650667,5.70453333 10.2784,5.7728 10.3637333,5.76426667 C10.3637333,5.76426667 9.96266667,5.55946667 9.91146667,5.38026667 C9.7408,4.8 9.57866667,3.88693333 9.52746667,3.84426667 C9.39946667,3.68213333 8.8704,3.28106667 8.54613333,3.09333333 C8.42666667,3.02506667 8.3584,2.97386667 8.34986667,2.94826667 C8.45226667,2.84586667 8.58026667,2.7008 8.69973333,2.61546667 C8.81066667,2.53013333 8.91306667,2.43626667 9.06666667,2.37653333 C9.7408,2.06933333 10.1333333,2.496 10.2186667,2.41066667 C10.2186667,2.41066667 10.0736,2.24 10.1418667,2.27413333 C10.2101333,2.30826667 10.4234667,2.35093333 10.4490667,2.37653333 C10.6965333,2.5728 11.3450667,3.27253333 11.7290667,4.02346667 C11.8229333,4.20266667 11.8570667,4.32213333 11.8144,4.544 C11.7717333,4.76586667 11.7376,4.88533333 11.6864,5.0304 C11.6437333,5.12426667 11.4048,5.7984 11.4048,5.89226667 C11.3536,6.2592 11.5669333,6.72 11.5669333,6.72 C11.5669333,6.592 11.5584,6.52373333 11.5669333,6.4384 L11.584,6.27626667 C11.584,6.27626667 11.5754667,6.2336 11.5754667,6.21653333 C11.584,6.1056 11.6096,6.01173333 11.6181333,5.952 C11.6949333,5.47413333 11.8314667,5.12426667 11.9850667,4.6976 C12.0277333,4.5952 12.0874667,4.53546667 12.0874667,4.45013333 C12.0874667,4.30506667 11.9594667,4.11733333 11.8656,3.92106667 C11.7632,3.70773333 11.6437333,3.4944 11.5157333,3.2896 C11.1829333,2.8032 10.8928,2.42773333 10.3722667,2.1888 C10.2272,2.12053333 9.64693333,2.0608 9.45066667,2.09493333 C9.21173333,2.14613333 8.9984,2.19733333 8.83626667,2.29973333 C8.57173333,2.4704 8.36693333,2.7264 8.128,2.88 C7.59893333,2.61546667 7.34293333,2.41066667 7.29173333,2.38506667 C6.976,2.2144 6.592,2.01813333 6.19093333,1.8304 C5.9776,1.61706667 4.76586667,1.17333333 3.648,1.088 Z M10.4576,11.0208 C10.1333333,10.7648 9.85173333,10.5002667 9.67253333,10.2272 C9.6128,10.5429333 9.39946667,10.7733333 9.2288,10.9952 C9.19466667,11.0464 9.16906667,11.1232 9.3312,11.3450667 C9.37386667,11.4048 9.536,11.4133333 9.6384,11.4133333 C9.52746667,11.328 9.36533333,11.2426667 9.33973333,11.1658667 C9.536,11.2938667 9.70666667,11.3365333 9.8688,11.3109333 C9.90293333,11.3109333 9.95413333,11.2682667 9.98826667,11.2085333 C10.0565333,11.0549333 10.1162667,11.0208 10.176,10.9781333 L10.304,11.1402667 L10.4576,11.0208 L10.4576,11.0208 Z" id="形状" fill="rgba(255,255,255,1)" stroke="none"></path>        </g>    </g>
    </g>
  </svg>